<svg width="130" height="19" viewBox="0 0 130 19" fill="none" xmlns="http://www.w3.org/2000/svg">
<path d="M17.2415 1.152L11.2655 18H6.1295L0.1535 1.152H4.5215L8.6975 13.872L12.8975 1.152H17.2415ZM23.0608 1.152V18H18.9568V1.152H23.0608ZM38.1549 1.152V4.44H33.6909V18H29.5869V4.44H25.1229V1.152H38.1549ZM44.3186 4.44V7.848H49.8146V11.016H44.3186V14.712H50.5346V18H40.2146V1.152H50.5346V4.44H44.3186ZM52.5029 9.552C52.5029 7.888 52.8629 6.408 53.5829 5.112C54.3029 3.8 55.3029 2.784 56.5829 2.064C57.8789 1.328 59.3429 0.959999 60.9749 0.959999C62.9749 0.959999 64.6869 1.488 66.1109 2.544C67.5349 3.6 68.4869 5.04 68.9669 6.864H64.4549C64.1189 6.16 63.6389 5.624 63.0149 5.256C62.4069 4.888 61.7109 4.704 60.9269 4.704C59.6629 4.704 58.6389 5.144 57.8549 6.024C57.0709 6.904 56.6789 8.08 56.6789 9.552C56.6789 11.024 57.0709 12.2 57.8549 13.08C58.6389 13.96 59.6629 14.4 60.9269 14.4C61.7109 14.4 62.4069 14.216 63.0149 13.848C63.6389 13.48 64.1189 12.944 64.4549 12.24H68.9669C68.4869 14.064 67.5349 15.504 66.1109 16.56C64.6869 17.6 62.9749 18.12 60.9749 18.12C59.3429 18.12 57.8789 17.76 56.5829 17.04C55.3029 16.304 54.3029 15.288 53.5829 13.992C52.8629 12.696 52.5029 11.216 52.5029 9.552ZM86.0722 1.152V18H81.9682V11.064H75.5842V18H71.4802V1.152H75.5842V7.752H81.9682V1.152H86.0722ZM93.1389 4.44V7.848H98.6349V11.016H93.1389V14.712H99.3549V18H89.0349V1.152H99.3549V4.44H93.1389ZM108.115 18.168C106.883 18.168 105.779 17.968 104.803 17.568C103.827 17.168 103.043 16.576 102.451 15.792C101.875 15.008 101.571 14.064 101.539 12.96H105.907C105.971 13.584 106.187 14.064 106.555 14.4C106.923 14.72 107.403 14.88 107.995 14.88C108.603 14.88 109.083 14.744 109.435 14.472C109.787 14.184 109.963 13.792 109.963 13.296C109.963 12.88 109.819 12.536 109.531 12.264C109.259 11.992 108.915 11.768 108.499 11.592C108.099 11.416 107.523 11.216 106.771 10.992C105.683 10.656 104.795 10.32 104.107 9.984C103.419 9.648 102.827 9.152 102.331 8.496C101.835 7.84 101.587 6.984 101.587 5.928C101.587 4.36 102.155 3.136 103.291 2.256C104.427 1.36 105.907 0.912 107.731 0.912C109.587 0.912 111.083 1.36 112.219 2.256C113.355 3.136 113.963 4.368 114.043 5.952H109.603C109.571 5.408 109.371 4.984 109.003 4.68C108.635 4.36 108.163 4.2 107.587 4.2C107.091 4.2 106.691 4.336 106.387 4.608C106.083 4.864 105.931 5.24 105.931 5.736C105.931 6.28 106.187 6.704 106.699 7.008C107.211 7.312 108.011 7.64 109.099 7.992C110.187 8.36 111.067 8.712 111.739 9.048C112.427 9.384 113.019 9.872 113.515 10.512C114.011 11.152 114.259 11.976 114.259 12.984C114.259 13.944 114.011 14.816 113.515 15.6C113.035 16.384 112.331 17.008 111.403 17.472C110.475 17.936 109.379 18.168 108.115 18.168ZM122.881 18.168C121.649 18.168 120.545 17.968 119.569 17.568C118.593 17.168 117.809 16.576 117.217 15.792C116.641 15.008 116.337 14.064 116.305 12.96H120.673C120.737 13.584 120.953 14.064 121.321 14.4C121.689 14.72 122.169 14.88 122.761 14.88C123.369 14.88 123.849 14.744 124.201 14.472C124.553 14.184 124.729 13.792 124.729 13.296C124.729 12.88 124.585 12.536 124.297 12.264C124.025 11.992 123.681 11.768 123.265 11.592C122.865 11.416 122.289 11.216 121.537 10.992C120.449 10.656 119.561 10.32 118.873 9.984C118.185 9.648 117.593 9.152 117.097 8.496C116.601 7.84 116.353 6.984 116.353 5.928C116.353 4.36 116.921 3.136 118.057 2.256C119.193 1.36 120.673 0.912 122.497 0.912C124.353 0.912 125.849 1.36 126.985 2.256C128.121 3.136 128.729 4.368 128.809 5.952H124.369C124.337 5.408 124.137 4.984 123.769 4.68C123.401 4.36 122.929 4.2 122.353 4.2C121.857 4.2 121.457 4.336 121.153 4.608C120.849 4.864 120.697 5.24 120.697 5.736C120.697 6.28 120.953 6.704 121.465 7.008C121.977 7.312 122.777 7.64 123.865 7.992C124.953 8.36 125.833 8.712 126.505 9.048C127.193 9.384 127.785 9.872 128.281 10.512C128.777 11.152 129.025 11.976 129.025 12.984C129.025 13.944 128.777 14.816 128.281 15.6C127.801 16.384 127.097 17.008 126.169 17.472C125.241 17.936 124.145 18.168 122.881 18.168Z" fill="white"/>
</svg>
